#!OML:ASF F:\VICON\USERDATA\INSTALL\Justin_Nancy\Justin_Nancy.ASF
:FULLY-SPECIFIED
:DEGREES
1
root 1.22935 17.2598 -26.9208 0.489518 -4.81374 -3.87663
lowerback 4.60873 1.39498 3.73803
upperback -0.0628092 2.12981 2.63462
thorax -2.61439 1.02766 0.473598
lowerneck -15.661 -3.44048 -8.59582
upperneck 19.3739 -3.55598 4.32667
head 8.89011 -1.84982 2.45909
rclavicle -1.16413e-014 -2.38542e-014
rhumerus -24.6811 -7.02434 -80.7893
rradius 35.6595
rwrist 4.09133
rhand -13.9819 11.2951
rfingers 7.12502
rthumb 12.1466 -18.3323
lclavicle -1.16413e-014 -2.38542e-014
lhumerus 0 0 0
lradius 0
lwrist 0
lhand 0 0
lfingers 0
lthumb 0 0
rfemur 12.744 4.82251 30.8857
rtibia 18.8225
rfoot -13.742 -4.43503
rtoes -12.5588
lfemur -28.6707 -0.503906 -17.9786
ltibia 23.7922
lfoot -9.84384 5.92602
ltoes -3.2187
2
root 1.24114 17.268 -26.743 0.382278 -5.12543 -3.84535
lowerback 4.54268 1.49719 3.77359
upperback -0.0215868 2.26258 2.65858
thorax -2.53201 1.0949 0.472313
lowerneck -15.5661 -3.40737 -8.75366
upperneck 19.2781 -3.50259 4.44273
head 8.84149 -1.82413 2.53189
rclavicle 1.57164e-014 2.0276e-014
rhumerus -24.9259 -7.11381 -80.6733
rradius 35.556
rwrist 4.13366
rhand -14.4073 12.1118
rfingers 7.12502
rthumb 11.7364 -17.5394
lclavicle 1.57164e-014 2.0276e-014
lhumerus 0 0 0
lradius 0
lwrist 0
lhand 0 0
lfingers 0
lthumb 0 0
rfemur 12.9081 4.78234 30.6213
rtibia 19.7674
rfoot -13.2575 -3.59484
rtoes -13.1906
lfemur -28.3155 -0.27127 -18.2172
ltibia 24.4249
lfoot -9.23494 5.21547
ltoes -3.0915
3
root 1.25246 17.2841 -26.56 0.252161 -5.21186 -3.82129
lowerback 4.51949 1.53919 3.81636
upperback -0.0642586 2.32147 2.66251
thorax -2.56048 1.12296 0.448829
lowerneck -15.2167 -3.31082 -8.83118
upperneck 19.1171 -3.40808 4.57634
head 8.71961 -1.77368 2.60399
rclavicle -1.68222e-014 -2.10712e-014
rhumerus -25.2082 -7.50402 -80.5331
rradius 35.3144
rwrist 4.46024
rhand -14.3489 12.1065
rfingers 7.12502
rthumb 11.7927 -17.5415
lclavicle -1.68222e-014 -2.10712e-014
lhumerus -38.6462 25.4124 76.1763
lradius 17.8931
lwrist -18.8252
lhand 0 0
lfingers 0
lthumb 0 0
rfemur 12.9579 4.73106 30.4485
rtibia 20.9456
rfoot -12.5498 -3.00364
rtoes -13.0317
lfemur -27.8163 -0.386138 -18.3378
ltibia 24.6186
lfoot -7.94185 4.51984
ltoes -3.62775
4
root 1.26578 17.3053 -26.371 0.207104 -5.37882 -3.642
lowerback 4.46434 1.61464 3.57467
upperback -0.199125 2.41424 2.72625
thorax -2.67958 1.17041 0.642618
lowerneck -15.3603 -3.11819 -9.12597
upperneck 19.9132 -3.14471 4.90032
head 9.00878 -1.64653 2.805
rclavicle 5.67779e-015 8.34896e-015
rhumerus -25.5668 -7.50734 -80.304
rradius 35.2223
rwrist 4.33668
rhand -14.3337 10.6023
rfingers 7.12502
rthumb 11.8073 -19.0448
lclavicle 5.67779e-015 8.34896e-015
lhumerus -39.0968 25.9734 75.8041
lradius 17.7139
lwrist -19.6616
lhand 0 0
lfingers 0
lthumb 0 0
rfemur 12.7972 4.68292 30.0488
rtibia 22.348
rfoot -11.869 -2.36246
rtoes -14.6845
lfemur -27.4171 -0.532112 -18.5672
ltibia 24.749
lfoot -6.88733 4.09973
ltoes -4.24434
5
root 1.27492 17.3285 -26.1841 0.104583 -5.55134 -3.03437
lowerback 4.45096 1.69652 2.8977
upperback -0.210626 2.48522 2.62414
thorax -2.70645 1.2146 0.910294
lowerneck -15.4515 -3.37648 -8.9997
upperneck 19.7598 -3.43418 4.50598
head 8.98747 -1.81144 2.60824
rclavicle -1.17407e-014 1.59028e-015
rhumerus -25.8852 -7.54173 -80.2281
rradius 35.4077
rwrist 3.74498
rhand -14.1711 9.50102
rfingers 7.12502
rthumb 11.9641 -20.1371
lclavicle -1.17407e-014 1.59028e-015
lhumerus -39.2858 26.5092 75.4679
lradius 17.8304
lwrist -21.2061
lhand 0 0
lfingers 0
lthumb 0 0
rfemur 12.4665 4.65501 29.1885
rtibia 24.0629
rfoot -11.0794 -1.65478
rtoes -16.0716
lfemur -26.8432 -0.593373 -19.2716
ltibia 24.6941
lfoot -6.36495 3.62786
ltoes -3.69748
6
root 1.27892 17.3516 -25.9983 -0.0729303 -5.4499 -2.35555
lowerback 4.33491 1.75361 2.31717
upperback -0.143507 2.5161 2.33162
thorax -2.583 1.23772 0.936044
lowerneck -15.5427 -3.48951 -8.87517
upperneck 19.8185 -3.62428 4.54403
head 9.03623 -1.88662 2.5763
rclavicle 1.42255e-014 1.43125e-014
rhumerus -26.2031 -8.44292 -80.19
rradius 35.1491
rwrist 3.8808
rhand -14.018 10.1943
rfingers 7.12502
rthumb 12.1117 -19.4352
lclavicle 1.42255e-014 1.43125e-014
lhumerus -39.1606 26.4735 75.253
lradius 17.6669
lwrist -21.6864
lhand 0 0
lfingers 0
lthumb 0 0
rfemur 11.9773 4.46157 28.292
rtibia 26.1173
rfoot -10.06 -1.06395
rtoes -16.227
lfemur -26.1078 -0.716233 -20.0807
ltibia 24.5227
lfoot -6.01072 2.63687
ltoes -2.03478
7
root 1.27901 17.372 -25.8143 -0.298482 -5.09367 -1.62202
lowerback 4.22539 1.68658 1.56111
upperback -0.151409 2.37973 2.10427
thorax -2.5501 1.17889 1.13652
lowerneck -15.4101 -3.45099 -8.74467
upperneck 19.9733 -3.61197 4.5078
head 9.06065 -1.87839 2.54639
rclavicle -1.15109e-014 -5.1684e-015
rhumerus -26.4117 -9.55202 -79.9882
rradius 34.1714
rwrist 4.78238
rhand -13.9922 11.6708
rfingers 7.12502
rthumb 12.1366 -17.9572
lclavicle -1.15109e-014 -5.1684e-015
lhumerus -39.1666 26.1538 75.2904
lradius 17.3803
lwrist -20.5487
lhand 0 0
lfingers 0
lthumb 0 0
rfemur 11.34 4.08078 27.3445
rtibia 28.4472
rfoot -8.90258 -0.434962
rtoes -16.0241
lfemur -25.2544 -0.640162 -21.0491
ltibia 24.3488
lfoot -5.53425 1.56708
ltoes -1.5792
8
root 1.28432 17.3956 -25.6354 -0.358836 -4.68755 -1.22485
lowerback 4.21481 1.5554 1.13867
upperback -0.349646 2.18744 2.04316
thorax -2.75973 1.088 1.31947
lowerneck -15.0017 -3.38873 -8.81526
upperneck 20.1009 -3.53888 4.46167
head 9.02535 -1.86118 2.55612
rclavicle 1.33931e-014 3.18055e-015
rhumerus -26.9056 -10.2978 -79.7058
rradius 33.5212
rwrist 5.33448
rhand -14.0319 12.0017
rfingers 7.12502
rthumb 12.0983 -17.6285
lclavicle 1.33931e-014 3.18055e-015
lhumerus -39.6045 26.4041 74.9619
lradius 17.177
lwrist -19.8662
lhand -13.9644 25.4289
lfingers 7.12502
lthumb 12.1634 55.0553
rfemur 10.3645 3.61274 26.6997
rtibia 30.9163
rfoot -7.14086 0.269307
rtoes -15.3074
lfemur -24.5965 -0.597672 -21.6265
ltibia 24.2651
lfoot -5.00916 1.02046
ltoes -0.901618
9
root 1.29134 17.4143 -25.46 -0.470792 -4.32927 -1.10289
lowerback 4.25715 1.40922 1.11761
upperback -0.407434 1.99244 1.9873
thorax -2.8386 0.990549 1.28473
lowerneck -15.0136 -3.35494 -8.91272
upperneck 20.3692 -3.48083 4.49652
head 9.1186 -1.84121 2.59413
rclavicle -1.49585e-014 -1.07344e-014
rhumerus -27.2033 -10.9624 -79.5392
rradius 32.7644
rwrist 5.8116
rhand -14.4844 12.7829
rfingers 7.12502
rthumb 11.662 -16.8725
lclavicle -1.49585e-014 -1.07344e-014
lhumerus -39.8698 27.3961 74.1285
lradius 16.8116
lwrist -20.7584
lhand -14.869 22.7672
lfingers 7.12502
lthumb 11.2911 52.4433
rfemur 9.34491 3.11851 26.2985
rtibia 33.4661
rfoot -4.93663 0.982335
rtoes -13.6685
lfemur -23.9259 -0.49509 -21.9078
ltibia 24.2735
lfoot -4.71395 0.467183
ltoes 0.77491
